<svg width="222" height="90" viewBox="0 0 222 90" fill="none" xmlns="http://www.w3.org/2000/svg">
<rect width="222" height="90" fill="#C4C4C4"/>
<path d="M222 0L216 6L6.00001 6L7.15256e-06 -9.70393e-06L222 0Z" fill="url(#paint0_linear_18_14)"/>
<path d="M7.62939e-05 0L6.00008 6L6.00008 84L7.62939e-05 90L7.62939e-05 0Z" fill="url(#paint1_linear_18_14)"/>
<path d="M222 90L216 84L216 6L222 -9.53674e-07L222 90Z" fill="url(#paint2_linear_18_14)"/>
<path d="M0.000106812 90L5.99999 84L216 84L222 90L0.000106812 90Z" fill="url(#paint3_linear_18_14)"/>
<defs>
<linearGradient id="paint0_linear_18_14" x1="222" y1="3" x2="-1.31134e-07" y2="2.99999" gradientUnits="userSpaceOnUse">
<stop stop-color="#A6A6A6"/>
<stop offset="1" stop-color="#E5E5E5"/>
</linearGradient>
<linearGradient id="paint1_linear_18_14" x1="3.00008" y1="0" x2="3.00008" y2="90" gradientUnits="userSpaceOnUse">
<stop stop-color="#E5E5E5"/>
<stop offset="1" stop-color="#A6A6A6"/>
</linearGradient>
<linearGradient id="paint2_linear_18_14" x1="219" y1="90" x2="219" y2="-2.62269e-07" gradientUnits="userSpaceOnUse">
<stop stop-color="#2F2F2F"/>
<stop offset="1" stop-color="#888888"/>
</linearGradient>
<linearGradient id="paint3_linear_18_14" x1="0.00010668" y1="87" x2="222" y2="87" gradientUnits="userSpaceOnUse">
<stop stop-color="#888888"/>
<stop offset="1" stop-color="#2F2F2F"/>
</linearGradient>
</defs>
</svg>
