<svg width="60" height="60" viewBox="0 0 60 60" fill="none" xmlns="http://www.w3.org/2000/svg">
<rect x="4.59512e-05" y="7.62939e-05" width="59.9999" height="59.9999" fill="#C4C4C4"/>
<path d="M59.9999 0.000106812L53.9999 6.0001L5.99999 6.0001L-9.53674e-07 0.000104189L59.9999 0.000106812Z" fill="url(#paint0_linear_3_831)"/>
<path d="M6.121e-05 0L6.00005 5.99999L6.00005 53.9999L6.121e-05 59.9999L6.121e-05 0Z" fill="url(#paint1_linear_3_831)"/>
<path d="M59.9999 60L53.9999 54L53.9999 6.00004L59.9999 4.48227e-05L59.9999 60Z" fill="url(#paint2_linear_3_831)"/>
<path d="M9.18149e-05 59.9999L6.00008 53.9999L54 53.9999L60 59.9999L9.18149e-05 59.9999Z" fill="url(#paint3_linear_3_831)"/>
<path d="M22.5 16.5V42.4999" stroke="#DB0000" stroke-width="3" stroke-linecap="round" stroke-linejoin="round"/>
<path d="M22.5 16.5L40.4999 25.5L22.5 34.4999" fill="#DB0000"/>
<path d="M22.5 16.5L40.4999 25.5L22.5 34.4999" stroke="#DB0000" stroke-width="3" stroke-linecap="round" stroke-linejoin="round"/>
<defs>
<linearGradient id="paint0_linear_3_831" x1="59.9999" y1="3.0001" x2="-1.31134e-07" y2="3.0001" gradientUnits="userSpaceOnUse">
<stop stop-color="#A6A6A6"/>
<stop offset="1" stop-color="#E5E5E5"/>
</linearGradient>
<linearGradient id="paint1_linear_3_831" x1="3.00006" y1="0" x2="3.00006" y2="59.9999" gradientUnits="userSpaceOnUse">
<stop stop-color="#E5E5E5"/>
<stop offset="1" stop-color="#A6A6A6"/>
</linearGradient>
<linearGradient id="paint2_linear_3_831" x1="56.9999" y1="60" x2="56.9999" y2="4.55141e-05" gradientUnits="userSpaceOnUse">
<stop stop-color="#2F2F2F"/>
<stop offset="1" stop-color="#888888"/>
</linearGradient>
<linearGradient id="paint3_linear_3_831" x1="9.16837e-05" y1="56.9999" x2="60" y2="56.9999" gradientUnits="userSpaceOnUse">
<stop stop-color="#888888"/>
<stop offset="1" stop-color="#2F2F2F"/>
</linearGradient>
</defs>
</svg>
