<svg width="60" height="60" viewBox="0 0 60 60" fill="none" xmlns="http://www.w3.org/2000/svg">
<rect x="4.57764e-05" y="8.39233e-05" width="59.9999" height="59.9999" fill="#C4C4C4"/>
<circle cx="29.25" cy="29.2499" r="12.75" fill="#181818"/>
<path d="M17.6516 17.6516L23.9255 19.3326L19.3327 23.9254L17.6516 17.6516Z" fill="#181818"/>
<path d="M12 29.2499L17.625 26.0023L17.625 32.4975L12 29.2499Z" fill="#181818"/>
<path d="M23.9254 39.2738L17.6516 40.9549L19.3326 34.681L23.9254 39.2738Z" fill="#181818"/>
<path d="M29.25 46.4999L26.0024 40.8749L32.4976 40.8749L29.25 46.4999Z" fill="#181818"/>
<path d="M40.9549 40.9548L34.681 39.2738L39.2738 34.681L40.9549 40.9548Z" fill="#181818"/>
<path d="M46.4999 29.2499L40.875 32.4975L40.875 26.0023L46.4999 29.2499Z" fill="#181818"/>
<path d="M40.9549 17.6516L39.2738 23.9255L34.681 19.3327L40.9549 17.6516Z" fill="#181818"/>
<path d="M29.25 11.9999L32.4976 17.6249H26.0024L29.25 11.9999Z" fill="#181818"/>
</svg>
