<svg width="45" height="45" viewBox="0 0 45 45" fill="none" xmlns="http://www.w3.org/2000/svg">
<rect x="4.86374e-05" y="9.15527e-05" width="45" height="45" fill="#C4C4C4"/>
<path d="M45 0L39 6L5.99999 6L9.53674e-07 -1.96701e-06L45 0Z" fill="url(#paint0_linear_19_89)"/>
<path d="M6.29425e-05 0L6.00006 5.99999L5.99996 39L6.29425e-05 45L6.29425e-05 0Z" fill="url(#paint1_linear_19_89)"/>
<path d="M45 45L39 39L39 6.00001L45 1.23978e-05L45 45Z" fill="url(#paint2_linear_19_89)"/>
<path d="M9.53674e-07 45L5.99999 39L39 39L45 45L9.53674e-07 45Z" fill="url(#paint3_linear_19_89)"/>
<defs>
<linearGradient id="paint0_linear_19_89" x1="45" y1="3" x2="-1.31134e-07" y2="3" gradientUnits="userSpaceOnUse">
<stop stop-color="#A6A6A6"/>
<stop offset="1" stop-color="#E5E5E5"/>
</linearGradient>
<linearGradient id="paint1_linear_19_89" x1="3.00006" y1="0" x2="3.00006" y2="45" gradientUnits="userSpaceOnUse">
<stop stop-color="#E5E5E5"/>
<stop offset="1" stop-color="#A6A6A6"/>
</linearGradient>
<linearGradient id="paint2_linear_19_89" x1="42" y1="45" x2="42" y2="1.11818e-05" gradientUnits="userSpaceOnUse">
<stop stop-color="#2F2F2F"/>
<stop offset="1" stop-color="#888888"/>
</linearGradient>
<linearGradient id="paint3_linear_19_89" x1="8.2254e-07" y1="42" x2="45" y2="42" gradientUnits="userSpaceOnUse">
<stop stop-color="#888888"/>
<stop offset="1" stop-color="#2F2F2F"/>
</linearGradient>
</defs>
</svg>
